<mxfile host="app.diagrams.net" modified="2024-01-11T15:24:20.456Z" agent="Mozilla/5.0 (Windows NT 10.0; Win64; x64) AppleWebKit/537.36 (KHTML, like Gecko) Chrome/118.0.0.0 YaBrowser/23.11.0.0 Safari/537.36" etag="doiN9V5bhFBFdS83gJF3" version="22.1.18" type="device">
  <diagram name="Страница — 1" id="bPmYjhCNU0YOI3XfYpBD">
    <mxGraphModel dx="857" dy="397" grid="1" gridSize="10" guides="1" tooltips="1" connect="1" arrows="1" fold="1" page="1" pageScale="1" pageWidth="827" pageHeight="1169" math="0" shadow="0">
      <root>
        <mxCell id="0" />
        <mxCell id="1" parent="0" />
        <mxCell id="UpQ5THeRLOMIumfDRayw-10" value="Регистрация пользователя" style="html=1;whiteSpace=wrap;" parent="1" vertex="1">
          <mxGeometry x="164" y="60" width="110" height="60" as="geometry" />
        </mxCell>
        <mxCell id="UpQ5THeRLOMIumfDRayw-12" value="Логин" style="html=1;verticalAlign=bottom;endArrow=block;curved=0;rounded=0;" parent="1" edge="1">
          <mxGeometry width="80" relative="1" as="geometry">
            <mxPoint x="84" y="70" as="sourcePoint" />
            <mxPoint x="164" y="70" as="targetPoint" />
          </mxGeometry>
        </mxCell>
        <mxCell id="UpQ5THeRLOMIumfDRayw-13" value="Пароль" style="html=1;verticalAlign=bottom;endArrow=block;curved=0;rounded=0;" parent="1" edge="1">
          <mxGeometry width="80" relative="1" as="geometry">
            <mxPoint x="84" y="110" as="sourcePoint" />
            <mxPoint x="164" y="110" as="targetPoint" />
          </mxGeometry>
        </mxCell>
        <mxCell id="UpQ5THeRLOMIumfDRayw-14" value="Авторизация в приложении" style="html=1;whiteSpace=wrap;" parent="1" vertex="1">
          <mxGeometry x="164" y="170" width="110" height="60" as="geometry" />
        </mxCell>
        <mxCell id="UpQ5THeRLOMIumfDRayw-15" value="Логин" style="html=1;verticalAlign=bottom;endArrow=block;curved=0;rounded=0;" parent="1" edge="1">
          <mxGeometry width="80" relative="1" as="geometry">
            <mxPoint x="84" y="199.57999999999998" as="sourcePoint" />
            <mxPoint x="164" y="199.57999999999998" as="targetPoint" />
          </mxGeometry>
        </mxCell>
        <mxCell id="UpQ5THeRLOMIumfDRayw-16" value="Пароль" style="html=1;verticalAlign=bottom;endArrow=block;curved=0;rounded=0;" parent="1" edge="1">
          <mxGeometry width="80" relative="1" as="geometry">
            <mxPoint x="84" y="220" as="sourcePoint" />
            <mxPoint x="164" y="220" as="targetPoint" />
          </mxGeometry>
        </mxCell>
        <mxCell id="UpQ5THeRLOMIumfDRayw-26" value="" style="html=1;verticalAlign=bottom;endArrow=block;curved=0;rounded=0;exitX=1;exitY=0.5;exitDx=0;exitDy=0;" parent="1" source="UpQ5THeRLOMIumfDRayw-10" edge="1">
          <mxGeometry width="80" relative="1" as="geometry">
            <mxPoint x="14" y="-10" as="sourcePoint" />
            <mxPoint x="164" y="180" as="targetPoint" />
            <Array as="points">
              <mxPoint x="304" y="90" />
              <mxPoint x="304" y="30" />
              <mxPoint x="54" y="30" />
              <mxPoint x="54" y="180" />
            </Array>
          </mxGeometry>
        </mxCell>
        <mxCell id="UpQ5THeRLOMIumfDRayw-28" value="Данные нового&lt;br&gt;пользователя" style="edgeLabel;html=1;align=center;verticalAlign=middle;resizable=0;points=[];" parent="UpQ5THeRLOMIumfDRayw-26" vertex="1" connectable="0">
          <mxGeometry x="0.7831" y="1" relative="1" as="geometry">
            <mxPoint x="14" y="-19" as="offset" />
          </mxGeometry>
        </mxCell>
        <mxCell id="UpQ5THeRLOMIumfDRayw-32" value="Выбор голоса озвучивания, ввод текста и названия файла" style="html=1;whiteSpace=wrap;" parent="1" vertex="1">
          <mxGeometry x="314" y="270" width="110" height="60" as="geometry" />
        </mxCell>
        <mxCell id="UpQ5THeRLOMIumfDRayw-35" value="Паттерн" style="html=1;verticalAlign=bottom;endArrow=block;curved=0;rounded=0;exitX=1;exitY=0.5;exitDx=0;exitDy=0;" parent="1" edge="1">
          <mxGeometry width="80" relative="1" as="geometry">
            <mxPoint x="424" y="280" as="sourcePoint" />
            <mxPoint x="574" y="280" as="targetPoint" />
          </mxGeometry>
        </mxCell>
        <mxCell id="UpQ5THeRLOMIumfDRayw-39" value="Текст" style="html=1;verticalAlign=bottom;endArrow=block;curved=0;rounded=0;exitX=1.006;exitY=0.559;exitDx=0;exitDy=0;exitPerimeter=0;entryX=0.002;entryY=0.546;entryDx=0;entryDy=0;entryPerimeter=0;" parent="1" edge="1">
          <mxGeometry width="80" relative="1" as="geometry">
            <mxPoint x="423.99999999999994" y="300.39" as="sourcePoint" />
            <mxPoint x="573.56" y="299.61" as="targetPoint" />
          </mxGeometry>
        </mxCell>
        <mxCell id="UpQ5THeRLOMIumfDRayw-40" value="Преобразование текста в аудиофайл" style="html=1;whiteSpace=wrap;" parent="1" vertex="1">
          <mxGeometry x="574" y="270" width="110" height="60" as="geometry" />
        </mxCell>
        <mxCell id="UpQ5THeRLOMIumfDRayw-45" value="Аудиофайл" style="html=1;verticalAlign=bottom;endArrow=block;curved=0;rounded=0;exitX=1;exitY=0.5;exitDx=0;exitDy=0;" parent="1" source="UpQ5THeRLOMIumfDRayw-40" edge="1">
          <mxGeometry x="-0.1111" width="80" relative="1" as="geometry">
            <mxPoint x="734" y="309.58000000000004" as="sourcePoint" />
            <mxPoint x="774" y="300" as="targetPoint" />
            <Array as="points" />
            <mxPoint as="offset" />
          </mxGeometry>
        </mxCell>
        <mxCell id="UpQ5THeRLOMIumfDRayw-48" value="Заявка&lt;br&gt;пользователя" style="html=1;verticalAlign=bottom;endArrow=block;curved=0;rounded=0;entryX=0.5;entryY=0;entryDx=0;entryDy=0;" parent="1" target="UpQ5THeRLOMIumfDRayw-32" edge="1">
          <mxGeometry x="-0.4667" width="80" relative="1" as="geometry">
            <mxPoint x="274" y="200" as="sourcePoint" />
            <mxPoint x="384" y="240" as="targetPoint" />
            <Array as="points">
              <mxPoint x="369" y="200" />
            </Array>
            <mxPoint as="offset" />
          </mxGeometry>
        </mxCell>
        <mxCell id="UpQ5THeRLOMIumfDRayw-55" value="Пользователь" style="html=1;verticalAlign=bottom;endArrow=block;curved=0;rounded=0;entryX=0.5;entryY=1;entryDx=0;entryDy=0;" parent="1" target="UpQ5THeRLOMIumfDRayw-32" edge="1">
          <mxGeometry x="-0.4286" width="80" relative="1" as="geometry">
            <mxPoint x="369" y="400" as="sourcePoint" />
            <mxPoint x="381.5" y="350" as="targetPoint" />
            <mxPoint as="offset" />
          </mxGeometry>
        </mxCell>
        <mxCell id="UpQ5THeRLOMIumfDRayw-56" value="Нейросеть" style="html=1;verticalAlign=bottom;endArrow=block;curved=0;rounded=0;entryX=0.5;entryY=1;entryDx=0;entryDy=0;" parent="1" target="UpQ5THeRLOMIumfDRayw-40" edge="1">
          <mxGeometry x="-0.4286" width="80" relative="1" as="geometry">
            <mxPoint x="629" y="400" as="sourcePoint" />
            <mxPoint x="674" y="380" as="targetPoint" />
            <mxPoint as="offset" />
          </mxGeometry>
        </mxCell>
        <mxCell id="UpQ5THeRLOMIumfDRayw-57" value="Варианты голосов" style="html=1;verticalAlign=bottom;endArrow=block;curved=0;rounded=0;" parent="1" edge="1">
          <mxGeometry width="80" relative="1" as="geometry">
            <mxPoint x="204" y="300" as="sourcePoint" />
            <mxPoint x="314" y="300" as="targetPoint" />
          </mxGeometry>
        </mxCell>
        <mxCell id="UpQ5THeRLOMIumfDRayw-58" value="Запрос на&lt;br&gt;генерацию" style="html=1;verticalAlign=bottom;endArrow=block;curved=0;rounded=0;entryX=0.5;entryY=0;entryDx=0;entryDy=0;" parent="1" target="UpQ5THeRLOMIumfDRayw-40" edge="1">
          <mxGeometry x="0.25" width="80" relative="1" as="geometry">
            <mxPoint x="629" y="190" as="sourcePoint" />
            <mxPoint x="704" y="190" as="targetPoint" />
            <mxPoint as="offset" />
          </mxGeometry>
        </mxCell>
        <mxCell id="DXBr0NuNh4niMRsXZ2Gv-1" value="А1" style="text;html=1;strokeColor=none;fillColor=none;align=center;verticalAlign=middle;whiteSpace=wrap;rounded=0;" parent="1" vertex="1">
          <mxGeometry x="234" y="100" width="60" height="30" as="geometry" />
        </mxCell>
        <mxCell id="DXBr0NuNh4niMRsXZ2Gv-2" value="А2" style="text;html=1;strokeColor=none;fillColor=none;align=center;verticalAlign=middle;whiteSpace=wrap;rounded=0;" parent="1" vertex="1">
          <mxGeometry x="234" y="210" width="60" height="30" as="geometry" />
        </mxCell>
        <mxCell id="DXBr0NuNh4niMRsXZ2Gv-3" value="А3" style="text;html=1;align=center;verticalAlign=middle;resizable=0;points=[];autosize=1;strokeColor=none;fillColor=none;" parent="1" vertex="1">
          <mxGeometry x="394" y="310" width="40" height="30" as="geometry" />
        </mxCell>
        <mxCell id="DXBr0NuNh4niMRsXZ2Gv-6" value="А4" style="text;html=1;align=center;verticalAlign=middle;resizable=0;points=[];autosize=1;strokeColor=none;fillColor=none;" parent="1" vertex="1">
          <mxGeometry x="654" y="310" width="40" height="30" as="geometry" />
        </mxCell>
        <mxCell id="lebt0XO4IQh8JMzXmhsV-2" value="Название файла" style="html=1;verticalAlign=bottom;endArrow=block;curved=0;rounded=0;exitX=0.999;exitY=0.897;exitDx=0;exitDy=0;entryX=0.002;entryY=0.883;entryDx=0;entryDy=0;exitPerimeter=0;entryPerimeter=0;" edge="1" parent="1">
          <mxGeometry x="-0.0022" width="80" relative="1" as="geometry">
            <mxPoint x="423.66999999999996" y="320.84000000000003" as="sourcePoint" />
            <mxPoint x="573.9999999999999" y="320" as="targetPoint" />
            <mxPoint as="offset" />
          </mxGeometry>
        </mxCell>
      </root>
    </mxGraphModel>
  </diagram>
</mxfile>
